<?xml version="1.0" standalone="no"?>
<!DOCTYPE svg PUBLIC "-//W3C//DTD SVG 1.1//EN" "http://www.w3.org/Graphics/SVG/1.1/DTD/svg11.dtd">
<!--Generator: Xara Designer (www.xara.com), SVG filter version: 6.6.0.13-->
<svg fill="none" fill-rule="evenodd" stroke="black" stroke-linejoin="bevel" stroke-miterlimit="10" font-family="Times New Roman" font-size="16" style="font-variant-ligatures:none" xmlns:xlink="http://www.w3.org/1999/xlink" xmlns="http://www.w3.org/2000/svg" version="1.1" overflow="visible" width="51.236pt" height="63.535pt" viewBox="322.592 -148.005 51.236 63.535">
 <defs>
  <style type="text/css">@import url('https://themes.googleusercontent.com/fonts/css?family=Open Sans:400,600');</style>
 </defs>
 <g id="Layer 1" transform="scale(1 -1)" stroke-width="0.501">
  <g id="Group" fill="#7f7f7f" stroke="none" stroke-width="0.188" fill-rule="nonzero" stroke-linejoin="miter" stroke-miterlimit="0.00006103515625">
   <path d="M 348.212,84.47 L 348.017,84.521 C 347.645,84.619 338.777,87.022 331.552,95.904 L 331.066,96.5 L 373.828,131.503 L 373.828,123.937 C 373.828,91.541 348.662,84.587 348.41,84.521 L 348.212,84.47 Z M 333.247,96.288 C 339.482,88.97 346.914,86.471 348.212,86.076 C 350.516,86.787 372.28,94.271 372.28,123.939 L 372.28,128.232 L 333.247,96.288 Z M 329.971,97.972 L 329.498,98.684 C 328.407,100.318 327.43,102.075 326.595,103.905 L 326.346,104.447 L 370.851,140.862 L 371.331,140.526 C 372.762,139.523 373.54,138.819 373.572,138.791 L 373.828,138.561 L 373.828,133.867 L 329.971,97.972 Z M 328.256,104.006 C 328.874,102.71 329.566,101.456 330.32,100.26 L 372.28,134.6 L 372.28,137.86 C 372.017,138.081 371.556,138.451 370.917,138.917 L 328.256,104.006 Z M 325.626,106.22 L 325.257,107.258 C 324.561,109.222 323.995,111.309 323.578,113.455 L 323.486,113.909 L 362.008,145.443 L 362.431,145.278 C 364.444,144.49 366.408,143.549 368.264,142.479 L 369.234,141.914 L 325.626,106.22 Z M 325.185,113.301 C 325.503,111.764 325.897,110.265 326.36,108.825 L 366.507,141.684 C 365.144,142.419 363.732,143.084 362.287,143.666 L 325.185,113.301 Z M 323.134,115.988 L 322.973,117.394 C 322.717,119.609 322.592,121.75 322.592,123.939 L 322.592,138.561 L 322.848,138.793 C 323.265,139.17 333.254,148.005 348.212,148.005 C 351.668,148.005 355.15,147.523 358.565,146.563 L 360.002,146.162 L 323.134,115.988 Z M 324.14,137.86 L 324.14,123.939 C 324.14,122.28 324.214,120.653 324.365,118.993 L 356.687,145.45 C 353.878,146.116 351.034,146.456 348.212,146.456 C 335.148,146.456 325.783,139.219 324.14,137.86 Z" marker-start="none" marker-end="none"/>
  </g>
 </g>
</svg>
